<?xml version="1.0" encoding="UTF-8"?>
<svg width="30px" height="29px" viewBox="0 0 30 29" version="1.1" xmlns="http://www.w3.org/2000/svg" xmlns:xlink="http://www.w3.org/1999/xlink">
    <!-- Generator: Sketch 63.1 (92452) - https://sketch.com -->
    <title>Group 14</title>
    <desc>Created with Sketch.</desc>
    <defs>
        <polygon id="path-1" points="0.000331007249 0.791 9.79774109 0.791 9.79774109 10.8438882 0.000331007249 10.8438882"></polygon>
        <polygon id="path-3" points="0.742207403 0.925298902 10.589 0.925298902 10.589 11.0299546 0.742207403 11.0299546"></polygon>
        <polygon id="path-5" points="0.553433498 0.980668036 23.0844425 0.980668036 23.0844425 26 0.553433498 26"></polygon>
    </defs>
    <g id="Page-1" stroke="none" stroke-width="1" fill="none" fill-rule="evenodd">
        <g id="Desktop-HD-Copy-19" transform="translate(-683.000000, -368.000000)">
            <g id="Group-3" transform="translate(683.000000, 367.000000)">
                <g id="Group-14">
                    <path d="M6.1472,2.3402 C6.1712,2.3882 6.1822,2.3912 6.1752,2.3392 C6.1752,2.3382 6.1652,2.3382 6.1472,2.3402" id="Fill-1" fill="#E7E0FF"></path>
                    <g id="Group-5" transform="translate(0.000000, 0.209400)">
                        <mask id="mask-2" fill="white">
                            <use xlink:href="#path-1"></use>
                        </mask>
                        <g id="Clip-4"></g>
                        <path d="M2.3376,10.6074 C2.9266,8.5314 4.0536,6.7244 5.6896,5.2374 C6.8316,4.1984 8.1536,3.4184 9.5796,2.9214 C9.8386,2.8324 9.8766,2.4814 9.6416,2.3384 C8.7626,1.8104 7.5926,1.2154 6.4706,0.8864 C5.0586,0.5424 3.3366,1.1454 1.9286,2.4014 L1.9176,2.3934 C-1.3194,5.7094 0.1856,8.3764 1.7566,10.7014 C1.9106,10.9294 2.2626,10.8734 2.3376,10.6074" id="Fill-3" fill="#E7E0FF" mask="url(#mask-2)"></path>
                    </g>
                    <g id="Group-8" transform="translate(19.000000, 0.209400)">
                        <mask id="mask-4" fill="white">
                            <use xlink:href="#path-3"></use>
                        </mask>
                        <g id="Clip-7"></g>
                        <path d="M8.24,10.792 C7.648,8.706 6.514,6.89 4.871,5.395 C3.723,4.351 2.394,3.565 0.962,3.067 C0.701,2.977 0.663,2.624 0.899,2.482 C1.783,1.95 2.958,1.353 4.087,1.021 C5.506,0.676 7.236,1.282 8.651,2.545 L8.662,2.536 C11.916,5.869 10.403,8.549 8.824,10.886 C8.669,11.116 8.315,11.06 8.24,10.792" id="Fill-6" fill="#E7E0FF" mask="url(#mask-4)"></path>
                    </g>
                    <g id="Group-11" transform="translate(3.000000, 3.209400)">
                        <mask id="mask-6" fill="white">
                            <use xlink:href="#path-5"></use>
                        </mask>
                        <g id="Clip-10"></g>
                        <path d="M11.8161,20.36331 C7.3331,20.3703 3.6971,16.6923 3.70408991,12.2133 C3.7111,7.7853 7.3941,4.1233 11.8341,4.13028998 C16.2901,4.1363 19.9451,7.7923 19.93811,12.2293 C19.9301,16.7063 16.3501,20.3563 11.8161,20.36331 M23.0681,11.6363 C22.9201,8.7343 21.7841,6.2333 19.6971,4.2083 C15.3921,0.0303 8.6681,-0.1027 4.2951,3.8743 C2.6981,5.3273 1.5821,7.0823 0.9921,9.1623 C0.4021,11.2413 0.4061,13.3223 1.0111,15.3963 C1.5031,17.0883 2.3521,18.5573 3.5141,19.8313 C3.0891,21.0273 1.3421,24.2233 1.4241,24.6763 C1.5391,25.3053 2.6211,26.4413 3.5971,25.8203 C4.3791,25.3233 6.4671,23.2533 7.1811,22.5133 C10.2531,23.8453 13.3131,23.8563 16.3891,22.5463 C17.1031,23.2843 19.1721,25.3303 19.9411,25.8203 C20.9191,26.4413 22.0001,25.3053 22.1141,24.6763 C22.1951,24.2343 20.4821,21.1253 20.0531,19.9143 C22.1711,17.6123 23.2311,14.8653 23.0681,11.6363" id="Fill-9" fill="#E7E0FF" mask="url(#mask-6)"></path>
                    </g>
                    <path d="M18.7204,14.8158 L16.3224,14.8158 C16.2104,14.6348 16.0594,14.4818 15.8804,14.3678 L15.8804,10.1528 C15.8804,9.7398 15.5454,9.4038 15.1324,9.4038 C14.7194,9.4038 14.3834,9.7398 14.3834,10.1528 L14.3834,14.3558 C13.9834,14.6038 13.7154,15.0478 13.7154,15.5538 C13.7154,16.3328 14.3454,16.9618 15.1234,16.9618 C15.6214,16.9618 16.0594,16.7038 16.3094,16.3128 L18.7204,16.3128 C19.1334,16.3128 19.4684,15.9778 19.4684,15.5638 C19.4684,15.1508 19.1334,14.8158 18.7204,14.8158" id="Fill-12" fill="#E7E0FF"></path>
                </g>
            </g>
        </g>
    </g>
</svg>